<mxfile host="app.diagrams.net" modified="2022-06-19T19:06:40.417Z" agent="5.0 (X11; Linux x86_64) AppleWebKit/537.36 (KHTML, like Gecko) Chrome/96.0.4664.110 Safari/537.36" etag="XMvmBVItt-pLf4AGhmUj" version="20.0.1" type="github">
  <diagram name="product_denormalization" id="2ca16b54-16f6-2749-3443-fa8db7711227">
    <mxGraphModel dx="1422" dy="793" grid="1" gridSize="10" guides="1" tooltips="1" connect="1" arrows="1" fold="1" page="1" pageScale="1" pageWidth="1100" pageHeight="850" background="none" math="0" shadow="0">
      <root>
        <mxCell id="0" />
        <mxCell id="1" parent="0" />
        <mxCell id="jCXSHF31f1DGIERjWWqb-10" style="edgeStyle=orthogonalEdgeStyle;rounded=0;orthogonalLoop=1;jettySize=auto;html=1;exitX=1;exitY=0.75;exitDx=0;exitDy=0;entryX=0;entryY=0.25;entryDx=0;entryDy=0;startArrow=ERmany;startFill=0;endArrow=none;endFill=0;" edge="1" parent="1" source="2ed32ef02a7f4228-8" target="jCXSHF31f1DGIERjWWqb-9">
          <mxGeometry relative="1" as="geometry" />
        </mxCell>
        <mxCell id="jCXSHF31f1DGIERjWWqb-17" value="" style="edgeStyle=orthogonalEdgeStyle;rounded=0;orthogonalLoop=1;jettySize=auto;html=1;startArrow=ERmany;startFill=0;endArrow=none;endFill=0;exitX=1.009;exitY=0.779;exitDx=0;exitDy=0;exitPerimeter=0;entryX=-0.018;entryY=0.077;entryDx=0;entryDy=0;entryPerimeter=0;" edge="1" parent="1" source="2ed32ef02a7f4228-8" target="jCXSHF31f1DGIERjWWqb-16">
          <mxGeometry relative="1" as="geometry" />
        </mxCell>
        <mxCell id="2ed32ef02a7f4228-8" value="&lt;div style=&quot;box-sizing: border-box ; width: 100% ; background: #e4e4e4 ; padding: 2px&quot;&gt;production.product&lt;/div&gt;&lt;table border=&quot;1&quot; style=&quot;width: 100%; font-size: 1em; border: 1px solid rgb(3, 3, 3); border-collapse: collapse;&quot; cellpadding=&quot;2&quot; cellspacing=&quot;0&quot;&gt;&lt;tbody&gt;&lt;tr&gt;&lt;td&gt;PK&lt;/td&gt;&lt;td&gt;productid&lt;/td&gt;&lt;/tr&gt;&lt;tr&gt;&lt;td&gt;&lt;br&gt;&lt;br&gt;&lt;br&gt;&lt;br&gt;&lt;br&gt;&lt;br&gt;FK&lt;br&gt;FK&lt;br&gt;&lt;br&gt;&lt;br&gt;&lt;br&gt;&lt;br&gt;FK&lt;br&gt;FK&lt;/td&gt;&lt;td&gt;name&lt;br&gt;productnumber&lt;br&gt;makeflag&lt;br&gt;finishedgoodsflag&lt;br&gt;color&lt;br&gt;safetystocklevel&lt;br&gt;reorderpoint&lt;br&gt;standardcost&lt;br&gt;listprice&lt;br&gt;size&lt;br&gt;weight&lt;br&gt;sizeunitmeasurecode&lt;br&gt;weightunitmeasurecode&lt;br&gt;daystomanufacture&lt;br&gt;productline&lt;br&gt;class&lt;br&gt;style&lt;br&gt;productsubcategoryid&lt;br&gt;productmodelid&lt;br&gt;sellstartdate&lt;br&gt;sellenddate&lt;br&gt;discontinueddate&lt;br&gt;rowguid&lt;br&gt;modifieddate&lt;/td&gt;&lt;/tr&gt;&lt;/tbody&gt;&lt;/table&gt;" style="verticalAlign=top;align=left;overflow=fill;html=1;rounded=0;shadow=0;comic=0;labelBackgroundColor=none;strokeWidth=1;fontFamily=Verdana;fontSize=12;strokeColor=#141414;" parent="1" vertex="1">
          <mxGeometry y="110" width="220" height="390" as="geometry" />
        </mxCell>
        <mxCell id="jCXSHF31f1DGIERjWWqb-14" value="" style="edgeStyle=orthogonalEdgeStyle;rounded=0;orthogonalLoop=1;jettySize=auto;html=1;startArrow=ERmany;startFill=0;endArrow=none;endFill=0;entryX=0;entryY=0.25;entryDx=0;entryDy=0;exitX=0;exitY=0.5;exitDx=0;exitDy=0;" edge="1" parent="1" source="jCXSHF31f1DGIERjWWqb-9" target="jCXSHF31f1DGIERjWWqb-13">
          <mxGeometry relative="1" as="geometry" />
        </mxCell>
        <mxCell id="jCXSHF31f1DGIERjWWqb-9" value="&lt;div style=&quot;box-sizing: border-box ; width: 100% ; background: #e4e4e4 ; padding: 2px&quot;&gt;production.productsubcategory&lt;/div&gt;&lt;table border=&quot;1&quot; style=&quot;width: 100%; font-size: 1em; border: 1px solid rgb(3, 3, 3); border-collapse: collapse;&quot; cellpadding=&quot;2&quot; cellspacing=&quot;0&quot;&gt;&lt;tbody&gt;&lt;tr&gt;&lt;td&gt;PK&lt;/td&gt;&lt;td&gt;productsubcategoryid&lt;/td&gt;&lt;/tr&gt;&lt;tr&gt;&lt;td&gt;FK&lt;br&gt;&lt;br&gt;&lt;br&gt;&lt;br&gt;&lt;/td&gt;&lt;td&gt;productcategoryid&lt;br&gt;name&lt;br&gt;rowguid&lt;br&gt;modifieddate&lt;/td&gt;&lt;/tr&gt;&lt;/tbody&gt;&lt;/table&gt;" style="verticalAlign=top;align=left;overflow=fill;html=1;rounded=0;shadow=0;comic=0;labelBackgroundColor=none;strokeWidth=1;fontFamily=Verdana;fontSize=12;strokeColor=#141414;" vertex="1" parent="1">
          <mxGeometry x="280" y="160" width="160" height="100" as="geometry" />
        </mxCell>
        <mxCell id="jCXSHF31f1DGIERjWWqb-13" value="&lt;div style=&quot;box-sizing: border-box ; width: 100% ; background: #e4e4e4 ; padding: 2px&quot;&gt;production.productcategory&lt;/div&gt;&lt;table border=&quot;1&quot; style=&quot;width: 100%; font-size: 1em; border: 1px solid rgb(3, 3, 3); border-collapse: collapse;&quot; cellpadding=&quot;2&quot; cellspacing=&quot;0&quot;&gt;&lt;tbody&gt;&lt;tr&gt;&lt;td&gt;PK&lt;/td&gt;&lt;td&gt;productcategoryid&lt;/td&gt;&lt;/tr&gt;&lt;tr&gt;&lt;td&gt;&lt;br&gt;&lt;/td&gt;&lt;td&gt;name&lt;br&gt;rowguid&lt;br&gt;modifieddate&lt;/td&gt;&lt;/tr&gt;&lt;/tbody&gt;&lt;/table&gt;" style="verticalAlign=top;align=left;overflow=fill;html=1;rounded=0;shadow=0;comic=0;labelBackgroundColor=none;strokeWidth=1;fontFamily=Verdana;fontSize=12;strokeColor=#141414;" vertex="1" parent="1">
          <mxGeometry x="280" y="280" width="160" height="90" as="geometry" />
        </mxCell>
        <mxCell id="jCXSHF31f1DGIERjWWqb-23" style="edgeStyle=orthogonalEdgeStyle;rounded=0;orthogonalLoop=1;jettySize=auto;html=1;exitX=0;exitY=0.5;exitDx=0;exitDy=0;entryX=0.5;entryY=0;entryDx=0;entryDy=0;startArrow=none;startFill=0;endArrow=ERmany;endFill=0;" edge="1" parent="1" source="jCXSHF31f1DGIERjWWqb-16" target="jCXSHF31f1DGIERjWWqb-18">
          <mxGeometry relative="1" as="geometry" />
        </mxCell>
        <mxCell id="jCXSHF31f1DGIERjWWqb-16" value="&lt;div style=&quot;box-sizing: border-box ; width: 100% ; background: #e4e4e4 ; padding: 2px&quot;&gt;production.productmodel&lt;/div&gt;&lt;table border=&quot;1&quot; style=&quot;width: 100%; font-size: 1em; border: 1px solid rgb(3, 3, 3); border-collapse: collapse;&quot; cellpadding=&quot;2&quot; cellspacing=&quot;0&quot;&gt;&lt;tbody&gt;&lt;tr&gt;&lt;td&gt;PK&lt;/td&gt;&lt;td&gt;productmodelid&lt;/td&gt;&lt;/tr&gt;&lt;tr&gt;&lt;td&gt;&lt;br&gt;&lt;/td&gt;&lt;td&gt;name&lt;br&gt;catalogdescription&lt;br&gt;instructions&lt;br&gt;rowguid&lt;br&gt;modifieddate&lt;/td&gt;&lt;/tr&gt;&lt;/tbody&gt;&lt;/table&gt;" style="verticalAlign=top;align=left;overflow=fill;html=1;rounded=0;shadow=0;comic=0;labelBackgroundColor=none;strokeWidth=1;fontFamily=Verdana;fontSize=12;strokeColor=#141414;" vertex="1" parent="1">
          <mxGeometry x="260" y="450" width="220" height="110" as="geometry" />
        </mxCell>
        <mxCell id="jCXSHF31f1DGIERjWWqb-25" value="" style="edgeStyle=orthogonalEdgeStyle;rounded=0;orthogonalLoop=1;jettySize=auto;html=1;startArrow=none;startFill=0;endArrow=ERmany;endFill=0;" edge="1" parent="1" source="jCXSHF31f1DGIERjWWqb-18" target="jCXSHF31f1DGIERjWWqb-24">
          <mxGeometry relative="1" as="geometry" />
        </mxCell>
        <mxCell id="jCXSHF31f1DGIERjWWqb-18" value="&lt;div style=&quot;box-sizing: border-box ; width: 100% ; background: #e4e4e4 ; padding: 2px&quot;&gt;production.productmodelproductdescriptionculture&lt;/div&gt;&lt;table border=&quot;1&quot; style=&quot;width: 100%; font-size: 1em; border: 1px solid rgb(3, 3, 3); border-collapse: collapse;&quot; cellpadding=&quot;2&quot; cellspacing=&quot;0&quot;&gt;&lt;tbody&gt;&lt;tr&gt;&lt;td&gt;PK&lt;br&gt;PK&lt;br&gt;PK&lt;/td&gt;&lt;td&gt;productmodelid&lt;br&gt;productdescriptionid&lt;br&gt;cultureid&lt;/td&gt;&lt;/tr&gt;&lt;tr&gt;&lt;td&gt;&lt;br&gt;&lt;/td&gt;&lt;td&gt;modifieddate&lt;/td&gt;&lt;/tr&gt;&lt;/tbody&gt;&lt;/table&gt;" style="verticalAlign=top;align=left;overflow=fill;html=1;rounded=0;shadow=0;comic=0;labelBackgroundColor=none;strokeWidth=1;fontFamily=Verdana;fontSize=12;strokeColor=#141414;" vertex="1" parent="1">
          <mxGeometry x="20" y="580" width="260" height="90" as="geometry" />
        </mxCell>
        <mxCell id="jCXSHF31f1DGIERjWWqb-24" value="&lt;div style=&quot;box-sizing: border-box ; width: 100% ; background: #e4e4e4 ; padding: 2px&quot;&gt;production.productdescription&lt;/div&gt;&lt;table border=&quot;1&quot; style=&quot;width: 100%; font-size: 1em; border: 1px solid rgb(3, 3, 3); border-collapse: collapse;&quot; cellpadding=&quot;2&quot; cellspacing=&quot;0&quot;&gt;&lt;tbody&gt;&lt;tr&gt;&lt;td&gt;PK&lt;br&gt;&lt;/td&gt;&lt;td&gt;productdescriptionid&lt;br&gt;&lt;/td&gt;&lt;/tr&gt;&lt;tr&gt;&lt;td&gt;&lt;br&gt;&lt;/td&gt;&lt;td&gt;description&lt;br&gt;rowguid&lt;br&gt;modifieddate&lt;/td&gt;&lt;/tr&gt;&lt;/tbody&gt;&lt;/table&gt;" style="verticalAlign=top;align=left;overflow=fill;html=1;rounded=0;shadow=0;comic=0;labelBackgroundColor=none;strokeWidth=1;fontFamily=Verdana;fontSize=12;strokeColor=#141414;" vertex="1" parent="1">
          <mxGeometry x="20" y="720" width="260" height="90" as="geometry" />
        </mxCell>
        <mxCell id="jCXSHF31f1DGIERjWWqb-26" value="" style="shape=flexArrow;endArrow=classic;html=1;rounded=0;endWidth=56;endSize=21.67;width=44;fillColor=#dae8fc;strokeColor=#6c8ebf;" edge="1" parent="1">
          <mxGeometry width="50" height="50" relative="1" as="geometry">
            <mxPoint x="510" y="425" as="sourcePoint" />
            <mxPoint x="680" y="425" as="targetPoint" />
          </mxGeometry>
        </mxCell>
        <mxCell id="jCXSHF31f1DGIERjWWqb-27" value="Denormalization" style="edgeLabel;html=1;align=center;verticalAlign=middle;resizable=0;points=[];fontSize=14;labelBackgroundColor=none;" vertex="1" connectable="0" parent="jCXSHF31f1DGIERjWWqb-26">
          <mxGeometry x="-0.3294" y="-7" relative="1" as="geometry">
            <mxPoint x="13" y="-7" as="offset" />
          </mxGeometry>
        </mxCell>
        <mxCell id="jCXSHF31f1DGIERjWWqb-28" value="&lt;div style=&quot;box-sizing: border-box; width: 100%; background: rgb(228, 228, 228); padding: 2px; font-size: 14px;&quot;&gt;product_dim&lt;/div&gt;&lt;table border=&quot;1&quot; style=&quot;width: 100%; font-size: 14px; border: 1px solid rgb(3, 3, 3); border-collapse: collapse;&quot; cellpadding=&quot;2&quot; cellspacing=&quot;0&quot;&gt;&lt;tbody style=&quot;font-size: 14px;&quot;&gt;&lt;tr style=&quot;font-size: 14px;&quot;&gt;&lt;td style=&quot;font-size: 14px;&quot;&gt;PK&lt;/td&gt;&lt;td style=&quot;font-size: 14px;&quot;&gt;productid&lt;/td&gt;&lt;/tr&gt;&lt;tr style=&quot;font-size: 14px;&quot;&gt;&lt;td style=&quot;font-size: 14px;&quot;&gt;&lt;br style=&quot;font-size: 14px;&quot;&gt;&lt;/td&gt;&lt;td style=&quot;font-size: 14px;&quot;&gt;name&lt;br style=&quot;font-size: 14px;&quot;&gt;listprice&lt;br style=&quot;font-size: 14px;&quot;&gt;standardcost&lt;br style=&quot;font-size: 14px;&quot;&gt;productsubcategory&lt;br style=&quot;font-size: 14px;&quot;&gt;productcategory&lt;br style=&quot;font-size: 14px;&quot;&gt;productmodel&lt;br style=&quot;font-size: 14px;&quot;&gt;productdescription&lt;br style=&quot;font-size: 14px;&quot;&gt;sellstartdate&lt;br style=&quot;font-size: 14px;&quot;&gt;sellenddate&lt;br style=&quot;font-size: 14px;&quot;&gt;discontinueddate&lt;br style=&quot;font-size: 14px;&quot;&gt;modifieddate&lt;/td&gt;&lt;/tr&gt;&lt;/tbody&gt;&lt;/table&gt;" style="verticalAlign=top;align=left;overflow=fill;html=1;rounded=0;shadow=0;comic=0;labelBackgroundColor=none;strokeWidth=1;fontFamily=Verdana;fontSize=14;fillColor=#d5e8d4;strokeColor=#82b366;" vertex="1" parent="1">
          <mxGeometry x="760" y="320" width="250" height="230" as="geometry" />
        </mxCell>
      </root>
    </mxGraphModel>
  </diagram>
</mxfile>
